<svg width="1280" height="720" xmlns="http://www.w3.org/2000/svg" xmlns:xlink="http://www.w3.org/1999/xlink" overflow="hidden"><defs><clipPath id="clip0"><path d="M0 0 1280 0 1280 720 0 720Z" fill-rule="evenodd" clip-rule="evenodd"/></clipPath></defs><g clip-path="url(#clip0)"><rect x="0" y="0" width="1280" height="720" fill="#FFFFFF"/><text font-family="Cambria Math,Cambria Math_MSFontService,sans-serif" font-weight="400" font-size="24" transform="translate(147.269 242)">𝑥<tspan font-size="18" x="12.6" y="5">2</tspan><tspan x="30.4267" y="0">=</tspan><tspan x="55.0933" y="0">𝑥</tspan><tspan font-size="18" x="67.14" y="5">1</tspan><tspan x="83.6333" y="0">+</tspan><tspan x="106.967" y="0">𝑎</tspan></text><path d="M160.89 312.407C160.515 312.407 160.146 312.526 159.783 312.764 159.419 313.003 159.015 313.397 158.57 313.948 158.125 314.499 157.761 315.063 157.48 315.641 157.199 316.219 156.96 316.958 156.765 317.856L156.66 318.348C156.543 318.895 156.484 319.427 156.484 319.942 156.484 320.559 156.619 321.005 156.888 321.278 157.158 321.552 157.605 321.688 158.23 321.688 158.55 321.688 158.855 321.635 159.144 321.53 159.433 321.425 159.728 321.251 160.029 321.009 160.33 320.766 160.615 320.448 160.884 320.053 161.154 319.659 161.402 319.173 161.628 318.594 161.855 318.016 162.031 317.397 162.156 316.737 162.281 316.077 162.343 315.446 162.343 314.844 162.343 314.032 162.228 313.423 161.998 313.016 161.767 312.61 161.398 312.407 160.89 312.407ZM158.839 305.669 159.519 305.669 157.457 313.872 157.609 313.919C158.367 312.903 159.078 312.169 159.742 311.716 160.406 311.262 161.07 311.036 161.734 311.036 162.585 311.036 163.248 311.36 163.72 312.009 164.193 312.657 164.429 313.571 164.429 314.751 164.429 316.04 164.169 317.307 163.65 318.553 163.13 319.8 162.41 320.788 161.488 321.518 160.566 322.249 159.535 322.614 158.394 322.614 157.355 322.614 156.433 322.36 155.628 321.852L154.55 322.614 153.8 322.427 156.835 309.032C157.015 308.235 157.105 307.657 157.105 307.298 157.105 306.969 157.005 306.739 156.806 306.606 156.607 306.473 156.25 306.399 155.734 306.384L155.875 305.774Z" fill-rule="evenodd"/><text fill="#000000" fill-opacity="0" font-family="Arial,Arial_MSFontService,sans-serif" font-size="16.9453" x="153.8" y="320.496">𝑏</text><path d="M154.757 346.17C153.96 346.17 153.245 346.492 152.613 347.137 151.98 347.781 151.482 348.65 151.118 349.744 150.755 350.838 150.574 351.928 150.574 353.014 150.574 353.826 150.685 354.434 150.908 354.836 151.13 355.238 151.503 355.439 152.027 355.439 152.269 355.439 152.515 355.387 152.765 355.281 153.015 355.176 153.275 355.006 153.544 354.772 153.814 354.537 154.079 354.252 154.341 353.916 154.603 353.58 154.843 353.242 155.062 352.902 155.281 352.563 155.484 352.16 155.671 351.695 155.859 351.23 156.019 350.67 156.152 350.014L156.257 349.51C156.374 348.947 156.433 348.416 156.433 347.916 156.433 347.307 156.304 346.863 156.046 346.586 155.788 346.309 155.359 346.17 154.757 346.17ZM159.667 339.889 160.359 339.889 157.441 352.861C157.269 353.627 157.183 354.205 157.183 354.596 157.183 354.908 157.234 355.135 157.335 355.275 157.437 355.416 157.597 355.486 157.816 355.486 158.05 355.486 158.3 355.391 158.566 355.199 158.831 355.008 159.206 354.643 159.691 354.104L160.359 354.76C159.64 355.518 159.035 356.053 158.542 356.365 158.05 356.678 157.519 356.834 156.949 356.834 156.464 356.834 156.077 356.674 155.788 356.354 155.499 356.033 155.355 355.607 155.355 355.076 155.355 354.647 155.445 354.189 155.624 353.705L155.472 353.658C154.722 354.752 154.011 355.553 153.339 356.061 152.667 356.568 151.956 356.822 151.206 356.822 150.347 356.822 149.681 356.498 149.208 355.85 148.736 355.201 148.499 354.291 148.499 353.119 148.499 351.775 148.763 350.484 149.29 349.246 149.818 348.008 150.542 347.031 151.464 346.316 152.386 345.602 153.413 345.244 154.546 345.244 155.023 345.244 155.462 345.293 155.865 345.391 156.267 345.488 156.679 345.658 157.101 345.9L157.71 343.193C157.773 342.936 157.827 342.65 157.874 342.338 157.921 342.025 157.945 341.752 157.945 341.518 157.945 341.283 157.902 341.105 157.816 340.984 157.73 340.863 157.607 340.775 157.447 340.721 157.286 340.666 156.999 340.627 156.585 340.604L156.726 339.994Z" fill-rule="evenodd"/><text fill="#000000" fill-opacity="0" font-family="Arial,Arial_MSFontService,sans-serif" font-size="16.9453" x="148.499" y="354.716">𝑑</text><path d="M166.481 350.226 167.018 350.226C167.006 350.548 166.997 350.837 166.991 351.092 166.985 351.347 166.981 351.594 166.978 351.835 166.975 352.075 166.974 352.312 166.974 352.547L166.974 359.226C166.974 359.408 166.98 359.565 166.991 359.696 167.003 359.828 167.022 359.94 167.048 360.03 167.075 360.121 167.11 360.199 167.154 360.263 167.198 360.328 167.249 360.383 167.308 360.43 167.378 360.501 167.472 360.555 167.589 360.593 167.706 360.631 167.856 360.663 168.037 360.69 168.219 360.716 168.437 360.736 168.692 360.751 168.947 360.766 169.253 360.776 169.61 360.782L169.61 361.547 162.641 361.547 162.641 360.782C162.986 360.77 163.279 360.757 163.52 360.742 163.76 360.728 163.965 360.707 164.135 360.681 164.305 360.654 164.441 360.625 164.544 360.593 164.646 360.561 164.735 360.521 164.812 360.474 164.894 360.422 164.964 360.364 165.023 360.303 165.081 360.241 165.128 360.164 165.163 360.07 165.198 359.976 165.226 359.862 165.247 359.727 165.267 359.592 165.277 359.425 165.277 359.226L165.277 352.924C165.277 352.696 165.233 352.535 165.146 352.441 165.058 352.347 164.932 352.3 164.768 352.3 164.586 352.3 164.316 352.394 163.959 352.582 163.602 352.769 163.139 353.047 162.57 353.417 162.494 353.282 162.424 353.147 162.359 353.012 162.295 352.878 162.228 352.74 162.157 352.599 162.884 352.201 163.603 351.804 164.315 351.408 165.027 351.013 165.749 350.619 166.481 350.226Z" fill-rule="evenodd"/><text fill="#000000" fill-opacity="0" font-family="Arial,Arial_MSFontService,sans-serif" font-size="11.3203" x="162.157" y="360.131">1</text><path d="M147.269 332.593 171.269 332.593 171.269 334.593 147.269 334.593Z" fill-rule="evenodd"/><path d="M180.122 335.39 194.559 335.39 194.559 336.949 180.122 336.949ZM180.122 330.527 194.559 330.527 194.559 332.085 180.122 332.085Z" fill-rule="evenodd"/><text fill="#000000" fill-opacity="0" font-family="Arial,Arial_MSFontService,sans-serif" font-size="6.42188" x="180.122" y="336.146">=</text><path d="M300.124 290.326C302.741 291.654 304.821 294.092 306.364 297.639 307.907 301.186 308.679 305.342 308.679 310.108 308.679 314.842 307.907 318.998 306.364 322.576 304.821 326.154 302.741 328.6 300.124 329.912L299.749 328.975C301.843 327.615 303.481 325.279 304.665 321.967 305.849 318.654 306.44 314.709 306.44 310.131 306.44 305.467 305.845 301.496 304.653 298.219 303.462 294.942 301.827 292.623 299.749 291.264ZM213.648 290.326 214.034 291.264C211.956 292.623 210.322 294.942 209.13 298.219 207.939 301.496 207.343 305.467 207.343 310.131 207.343 314.709 207.933 318.654 209.113 321.967 210.292 325.279 211.933 327.615 214.034 328.975L213.648 329.912C211.038 328.6 208.962 326.154 207.419 322.576 205.876 318.998 205.105 314.842 205.105 310.108 205.105 305.342 205.876 301.186 207.419 297.639 208.962 294.092 211.038 291.654 213.648 290.326Z" fill-rule="evenodd"/><path d="M215.582 291.677 218.653 291.677 219.356 300.923C220.457 299.126 221.252 297.759 221.741 296.821 222.229 295.884 222.59 295.073 222.824 294.39 223.059 293.706 223.239 292.993 223.364 292.251L223.492 291.677 225.18 291.677 226.035 300.935C227.254 299.2 228.182 297.686 228.819 296.394 229.455 295.101 229.774 294.048 229.774 293.235 229.774 292.868 229.696 292.618 229.539 292.485 229.383 292.353 229.117 292.274 228.742 292.251L228.86 291.677 231.883 291.677 232.199 292.263C231.926 292.958 231.707 293.493 231.543 293.868 231.379 294.243 231.164 294.694 230.899 295.222 230.633 295.749 230.352 296.274 230.055 296.798 229.758 297.321 229.408 297.897 229.006 298.526 228.604 299.155 228.153 299.839 227.653 300.577 227.153 301.315 226.563 302.145 225.883 303.067L224.489 303.067 224.008 298.169C223.969 297.786 223.928 297.286 223.885 296.669 223.842 296.052 223.813 295.575 223.797 295.239L223.668 295.228C223.246 296.267 222.672 297.423 221.946 298.696 221.219 299.97 220.321 301.427 219.25 303.067L217.68 303.067 216.789 294.243C216.742 293.79 216.684 293.423 216.614 293.142 216.543 292.86 216.426 292.649 216.262 292.509 216.098 292.368 215.828 292.282 215.453 292.251Z" fill-rule="evenodd"/><text fill="#000000" fill-opacity="0" font-family="Arial,Arial_MSFontService,sans-serif" font-size="11.3906" x="215.453" y="301.644">𝑤</text><path d="M236.923 296.398C237.532 296.398 238.052 296.467 238.483 296.605 238.913 296.742 239.263 296.928 239.533 297.163 239.802 297.397 239.997 297.678 240.117 298.006 240.238 298.335 240.298 298.689 240.298 299.07 240.298 299.298 240.281 299.511 240.249 299.707 240.217 299.903 240.161 300.097 240.082 300.287 240.003 300.478 239.899 300.669 239.77 300.863 239.641 301.056 239.48 301.261 239.287 301.478 239.14 301.666 238.95 301.882 238.716 302.128 238.481 302.375 238.225 302.638 237.947 302.919 237.668 303.201 237.377 303.494 237.072 303.798 236.767 304.103 236.471 304.405 236.184 304.704 235.897 305.003 235.634 305.293 235.393 305.574 235.153 305.855 234.957 306.113 234.804 306.347L238.056 306.347C238.332 306.347 238.552 306.337 238.716 306.316 238.88 306.296 239.016 306.251 239.124 306.18 239.233 306.11 239.325 306.003 239.401 305.859 239.477 305.716 239.565 305.518 239.665 305.266L240.482 305.266C240.453 305.682 240.425 306.101 240.399 306.523 240.372 306.945 240.344 307.364 240.315 307.78L232.871 307.78 232.871 307.323C233.011 307.006 233.176 306.694 233.363 306.387 233.551 306.079 233.761 305.767 233.996 305.451 234.23 305.134 234.497 304.808 234.796 304.471 235.094 304.134 235.426 303.784 235.789 303.42 236.34 302.87 236.788 302.399 237.134 302.01 237.479 301.62 237.752 301.273 237.951 300.968 238.15 300.664 238.286 300.382 238.36 300.125 238.433 299.867 238.469 299.591 238.469 299.298 238.469 299 238.427 298.724 238.342 298.472 238.257 298.22 238.135 298.006 237.977 297.831 237.819 297.655 237.618 297.517 237.375 297.418 237.132 297.318 236.852 297.268 236.536 297.268 235.991 297.268 235.534 297.416 235.165 297.712 234.796 298.008 234.509 298.437 234.303 299L233.152 299 233.152 297.286C233.902 296.975 234.592 296.75 235.222 296.609 235.852 296.468 236.419 296.398 236.923 296.398Z" fill-rule="evenodd"/><text fill="#000000" fill-opacity="0" font-family="Arial,Arial_MSFontService,sans-serif" font-size="11.3818" x="232.871" y="306.357">2</text><path d="M249.915 295.239 264.352 295.239 264.352 296.798 249.915 296.798Z" fill-rule="evenodd"/><text fill="#000000" fill-opacity="0" font-family="Arial,Arial_MSFontService,sans-serif" font-size="1.55859" x="249.915" y="296.603">−</text><path d="M272.276 291.677 275.346 291.677 276.049 300.923C277.151 299.126 277.946 297.759 278.434 296.821 278.922 295.884 279.283 295.073 279.518 294.39 279.752 293.706 279.932 292.993 280.057 292.251L280.186 291.677 281.873 291.677 282.729 300.935C283.948 299.2 284.875 297.686 285.512 296.394 286.149 295.101 286.467 294.048 286.467 293.235 286.467 292.868 286.389 292.618 286.233 292.485 286.076 292.353 285.811 292.274 285.436 292.251L285.553 291.677 288.576 291.677 288.893 292.263C288.619 292.958 288.401 293.493 288.237 293.868 288.073 294.243 287.858 294.694 287.592 295.222 287.326 295.749 287.045 296.274 286.748 296.798 286.451 297.321 286.102 297.897 285.699 298.526 285.297 299.155 284.846 299.839 284.346 300.577 283.846 301.315 283.256 302.145 282.576 303.067L281.182 303.067 280.701 298.169C280.662 297.786 280.621 297.286 280.578 296.669 280.535 296.052 280.506 295.575 280.49 295.239L280.362 295.228C279.94 296.267 279.365 297.423 278.639 298.696 277.912 299.97 277.014 301.427 275.944 303.067L274.373 303.067 273.483 294.243C273.436 293.79 273.377 293.423 273.307 293.142 273.237 292.86 273.119 292.649 272.955 292.509 272.791 292.368 272.522 292.282 272.147 292.251Z" fill-rule="evenodd"/><text fill="#000000" fill-opacity="0" font-family="Arial,Arial_MSFontService,sans-serif" font-size="11.3906" x="272.147" y="301.644">𝑤</text><path d="M293.748 296.46 294.284 296.46C294.273 296.782 294.264 297.07 294.258 297.325 294.252 297.58 294.248 297.828 294.245 298.068 294.242 298.308 294.24 298.545 294.24 298.78L294.24 305.46C294.24 305.641 294.246 305.798 294.258 305.93 294.27 306.062 294.289 306.173 294.315 306.264 294.341 306.355 294.377 306.432 294.421 306.497 294.464 306.561 294.516 306.617 294.574 306.664 294.645 306.734 294.738 306.788 294.856 306.826 294.973 306.864 295.122 306.897 295.304 306.923 295.485 306.949 295.704 306.97 295.959 306.984 296.214 306.999 296.52 307.009 296.877 307.015L296.877 307.78 289.907 307.78 289.907 307.015C290.253 307.003 290.546 306.99 290.786 306.976 291.026 306.961 291.232 306.94 291.401 306.914 291.571 306.888 291.708 306.858 291.81 306.826 291.913 306.794 292.002 306.754 292.078 306.708 292.16 306.655 292.231 306.598 292.289 306.536 292.348 306.475 292.395 306.397 292.43 306.303 292.465 306.21 292.493 306.095 292.513 305.961 292.534 305.826 292.544 305.659 292.544 305.46L292.544 299.158C292.544 298.929 292.5 298.768 292.412 298.674 292.324 298.581 292.198 298.534 292.034 298.534 291.853 298.534 291.583 298.628 291.226 298.815 290.868 299.003 290.405 299.281 289.837 299.65 289.761 299.515 289.691 299.38 289.626 299.246 289.562 299.111 289.494 298.973 289.424 298.833 290.151 298.434 290.87 298.037 291.582 297.642 292.294 297.246 293.016 296.852 293.748 296.46Z" fill-rule="evenodd"/><text fill="#000000" fill-opacity="0" font-family="Arial,Arial_MSFontService,sans-serif" font-size="11.3203" x="289.424" y="306.365">1</text><path d="M256.961 312.863C258.414 312.863 259.511 313.181 260.253 313.818 260.996 314.455 261.367 315.379 261.367 316.589 261.367 317.004 261.326 317.384 261.244 317.732 261.162 318.08 261.033 318.423 260.857 318.763 260.681 319.103 260.445 319.468 260.148 319.859 259.851 320.25 259.523 320.646 259.164 321.048 258.804 321.451 258.183 322.121 257.3 323.058 255.816 324.629 254.726 326 254.031 327.172L258.449 327.172C258.832 327.172 259.14 327.148 259.375 327.101 259.609 327.054 259.796 326.976 259.937 326.867 260.078 326.757 260.189 326.615 260.271 326.439 260.353 326.263 260.457 325.992 260.582 325.625L261.578 325.625 261.378 329.047 251.734 329.047 251.734 328.484C252.07 327.664 252.523 326.824 253.093 325.964 253.664 325.105 254.472 324.093 255.519 322.929 256.425 321.929 257.078 321.172 257.476 320.656 257.914 320.093 258.24 319.607 258.455 319.197 258.669 318.787 258.824 318.4 258.918 318.037 259.011 317.673 259.058 317.308 259.058 316.941 259.058 316.355 258.964 315.838 258.777 315.388 258.589 314.939 258.302 314.586 257.916 314.328 257.529 314.07 257.043 313.941 256.457 313.941 254.996 313.941 254.011 314.754 253.503 316.379L252.085 316.379 252.085 314.129C253.031 313.683 253.916 313.361 254.74 313.162 255.564 312.963 256.304 312.863 256.961 312.863Z" fill-rule="evenodd"/><text fill="#000000" fill-opacity="0" font-family="Arial,Arial_MSFontService,sans-serif" font-size="16.1836" x="251.734" y="327.024">2</text><path d="M215.269 309.593 257.269 309.593 299.269 309.593 299.269 311.593 257.269 311.593 215.269 311.593Z" fill-rule="evenodd"/><path d="M251.028 339.889 251.707 339.889 249.692 348.01 249.832 348.057C250.575 347.072 251.276 346.359 251.936 345.918 252.596 345.477 253.262 345.256 253.934 345.256 254.66 345.256 255.219 345.465 255.61 345.883 256 346.301 256.196 346.881 256.196 347.623 256.196 348.115 256.082 348.814 255.856 349.721L255.094 352.791C254.883 353.643 254.778 354.244 254.778 354.596 254.778 354.908 254.828 355.135 254.93 355.275 255.032 355.416 255.192 355.486 255.41 355.486 255.645 355.486 255.895 355.391 256.16 355.199 256.426 355.008 256.801 354.643 257.285 354.104L257.953 354.76C257.203 355.549 256.588 356.092 256.108 356.389 255.627 356.686 255.086 356.834 254.485 356.834 253.977 356.834 253.573 356.654 253.272 356.295 252.971 355.936 252.821 355.471 252.821 354.9 252.821 354.393 252.95 353.647 253.207 352.662L253.711 350.635C253.891 349.908 254.012 349.363 254.075 349 254.137 348.637 254.168 348.354 254.168 348.15 254.168 347.596 254.078 347.203 253.899 346.973 253.719 346.742 253.426 346.627 253.02 346.627 252.7 346.627 252.344 346.76 251.953 347.025 251.563 347.291 251.153 347.695 250.723 348.238 250.293 348.781 249.952 349.301 249.698 349.797 249.444 350.293 249.243 350.885 249.094 351.572L248.028 356.647 246 356.647 249.012 343.252C249.2 342.416 249.293 341.838 249.293 341.518 249.293 341.189 249.194 340.959 248.994 340.826 248.795 340.693 248.438 340.619 247.922 340.604L248.063 339.994Z" fill-rule="evenodd"/><text fill="#000000" fill-opacity="0" font-family="Arial,Arial_MSFontService,sans-serif" font-size="16.9453" x="246" y="354.716">ℎ</text><path d="M263.635 350.226 264.171 350.226C264.159 350.548 264.15 350.837 264.145 351.092 264.139 351.347 264.134 351.594 264.131 351.835 264.128 352.075 264.127 352.312 264.127 352.547L264.127 359.226C264.127 359.408 264.133 359.565 264.145 359.696 264.156 359.828 264.175 359.94 264.202 360.03 264.228 360.121 264.263 360.199 264.307 360.263 264.351 360.328 264.402 360.383 264.461 360.43 264.531 360.501 264.625 360.555 264.742 360.593 264.859 360.631 265.009 360.663 265.19 360.69 265.372 360.716 265.59 360.736 265.845 360.751 266.1 360.766 266.406 360.776 266.764 360.782L266.764 361.547 259.794 361.547 259.794 360.782C260.14 360.77 260.433 360.757 260.673 360.742 260.913 360.728 261.118 360.707 261.288 360.681 261.458 360.654 261.594 360.625 261.697 360.593 261.799 360.561 261.889 360.521 261.965 360.474 262.047 360.422 262.117 360.364 262.176 360.303 262.234 360.241 262.281 360.164 262.316 360.07 262.352 359.976 262.379 359.862 262.4 359.727 262.42 359.592 262.431 359.425 262.431 359.226L262.431 352.924C262.431 352.696 262.387 352.535 262.299 352.441 262.211 352.347 262.085 352.3 261.921 352.3 261.739 352.3 261.47 352.394 261.112 352.582 260.755 352.769 260.292 353.047 259.724 353.417 259.648 353.282 259.577 353.147 259.513 353.012 259.448 352.878 259.381 352.74 259.311 352.599 260.037 352.201 260.756 351.804 261.468 351.408 262.18 351.013 262.902 350.619 263.635 350.226Z" fill-rule="evenodd"/><text fill="#000000" fill-opacity="0" font-family="Arial,Arial_MSFontService,sans-serif" font-size="11.3203" x="259.311" y="360.131">1</text><path d="M203.269 332.593 239.269 332.593 275.269 332.593 311.269 332.593 311.269 334.593 275.269 334.593 239.269 334.593 203.269 334.593Z" fill-rule="evenodd"/><text font-family="Cambria Math,Cambria Math_MSFontService,sans-serif" font-weight="400" font-size="24" transform="translate(418.525 341)">𝑏<tspan x="20.1933" y="0">=</tspan></text><path d="M558.273 304.731C560.555 305.333 562.306 306.631 563.529 308.627 564.752 310.624 565.363 313.032 565.363 315.852 565.363 318.68 564.754 321.088 563.535 323.077 562.316 325.065 560.562 326.36 558.273 326.961L557.992 326.059C559.797 325.458 561.138 324.27 562.017 322.497 562.896 320.723 563.336 318.469 563.336 315.735 563.336 313.094 562.898 310.901 562.023 309.155 561.148 307.409 559.793 306.235 557.957 305.633ZM472.584 304.731 472.901 305.633C471.072 306.235 469.719 307.409 468.84 309.155 467.961 310.901 467.522 313.094 467.522 315.735 467.522 318.469 467.961 320.723 468.84 322.497 469.719 324.27 471.061 325.458 472.865 326.059L472.584 326.961C470.295 326.36 468.541 325.065 467.322 323.077 466.104 321.088 465.494 318.68 465.494 315.852 465.494 313.032 466.106 310.624 467.328 308.627 468.551 306.631 470.303 305.333 472.584 304.731Z" fill-rule="evenodd"/><text font-family="Cambria Math,Cambria Math_MSFontService,sans-serif" font-weight="400" font-size="24" transform="translate(473.345 323)">𝑤<tspan font-size="18" x="16.8667" y="5">2</tspan><tspan x="33.36" y="0">−</tspan><tspan x="56.6933" y="0">𝑤</tspan><tspan font-size="18" x="73.0067" y="5">1</tspan><tspan x="94.1267" y="0">𝑑</tspan><tspan font-size="18" x="107.407" y="5">1</tspan><tspan x="35.6667" y="34">2</tspan><tspan x="49" y="34">ℎ</tspan><tspan font-size="18" x="61.78" y="39">1</tspan></text><path d="M463.305 332.865 506.305 332.865 549.305 332.865 592.305 332.865 592.305 334.865 549.305 334.865 506.305 334.865 463.305 334.865Z" fill-rule="evenodd"/><text font-family="Cambria Math,Cambria Math_MSFontService,sans-serif" font-weight="400" font-size="24" transform="translate(151.669 428)">𝑏<tspan font-size="18" x="13.76" y="-9">2</tspan><tspan x="30.2533" y="0">+</tspan><tspan x="53.5867" y="0">𝑑</tspan><tspan font-size="18" x="66.8667" y="5">1</tspan><tspan font-size="18" x="68.18" y="-9">2</tspan><tspan x="86.0067" y="0">=</tspan></text><path d="M329.177 410.055C331.458 410.656 333.21 411.955 334.433 413.951 335.656 415.947 336.267 418.355 336.267 421.176 336.267 424.004 335.658 426.412 334.439 428.4 333.22 430.388 331.466 431.683 329.177 432.285L328.896 431.383C330.701 430.781 332.042 429.594 332.921 427.82 333.8 426.047 334.24 423.793 334.24 421.058 334.24 418.418 333.802 416.224 332.927 414.478 332.052 412.732 330.697 411.558 328.861 410.957ZM271.541 410.055 271.858 410.957C270.03 411.558 268.676 412.732 267.797 414.478 266.918 416.224 266.479 418.418 266.479 421.058 266.479 423.793 266.918 426.047 267.797 427.82 268.676 429.594 270.018 430.781 271.823 431.383L271.541 432.285C269.252 431.683 267.498 430.388 266.28 428.4 265.061 426.412 264.452 424.004 264.452 421.176 264.452 418.355 265.063 415.947 266.286 413.951 267.508 411.955 269.26 410.656 271.541 410.055Z" fill-rule="evenodd"/><text font-family="Cambria Math,Cambria Math_MSFontService,sans-serif" font-weight="400" font-size="24" transform="translate(272.302 428)">𝑎<tspan x="19.2533" y="0">+</tspan><tspan x="42.5867" y="0">𝑏</tspan><tspan font-size="18" x="66.0733" y="-9">2</tspan><tspan x="146.349" y="1">𝑎</tspan><tspan x="166.936" y="1">=</tspan></text><path d="M479.139 393.999 482.796 393.999 482.796 394.29 521.805 394.29 561.305 394.29 561.305 396.29 521.805 396.29 482.305 396.29 482.305 395.558 480.452 395.558 475.237 447.531 474.147 447.531 466.917 434.242 464.772 435.367 464.315 434.534 468.381 432.39 474.264 443.277Z" fill-rule="evenodd"/><text font-family="Cambria Math,Cambria Math_MSFontService,sans-serif" font-weight="400" font-size="24" transform="translate(481.918 429)">𝑏<tspan font-size="18" x="13.76" y="-7">2</tspan><tspan x="30.2534" y="0">+</tspan><tspan x="53.5867" y="0">𝑑</tspan><tspan font-size="18" x="66.8667" y="6">1</tspan><tspan font-size="18" x="68.18" y="-9">2</tspan><tspan x="84.6733" y="0">−</tspan><tspan x="108.007" y="0">𝑏</tspan><tspan x="-334.649" y="88">∴</tspan></text><path d="M250.491 499.035C252.772 499.637 254.524 500.936 255.746 502.932 256.969 504.928 257.58 507.336 257.58 510.156 257.58 512.985 256.971 515.393 255.752 517.381 254.534 519.369 252.78 520.664 250.491 521.266L250.209 520.364C252.014 519.762 253.356 518.574 254.235 516.801 255.114 515.028 255.553 512.774 255.553 510.039 255.553 507.399 255.116 505.205 254.241 503.459 253.366 501.713 252.01 500.539 250.174 499.938ZM176.968 499.035 177.285 499.938C175.456 500.539 174.103 501.713 173.224 503.459 172.345 505.205 171.906 507.399 171.906 510.039 171.906 512.774 172.345 515.028 173.224 516.801 174.103 518.574 175.445 519.762 177.249 520.364L176.968 521.266C174.679 520.664 172.925 519.369 171.706 517.381 170.488 515.393 169.878 512.985 169.878 510.156 169.878 507.336 170.49 504.928 171.712 502.932 172.935 500.936 174.687 499.637 176.968 499.035Z" fill-rule="evenodd"/><text font-family="Yu Gothic,Yu Gothic_MSFontService,sans-serif" font-weight="400" font-size="24" transform="translate(177.729 517)">ゆえに<tspan font-family="Cambria Math,Cambria Math_MSFontService,sans-serif" x="107.126" y="12"> </tspan><tspan font-family="Cambria Math,Cambria Math_MSFontService,sans-serif" x="112.459" y="12">𝒙</tspan><tspan font-family="Cambria Math,Cambria Math_MSFontService,sans-serif" font-size="18" x="126.292" y="17">𝟐</tspan><tspan font-family="Cambria Math,Cambria Math_MSFontService,sans-serif" x="144.452" y="12">=</tspan><tspan font-family="Cambria Math,Cambria Math_MSFontService,sans-serif" x="169.119" y="12">𝒙</tspan><tspan font-family="Cambria Math,Cambria Math_MSFontService,sans-serif" font-size="18" x="182.952" y="17">𝟏</tspan><tspan font-family="Cambria Math,Cambria Math_MSFontService,sans-serif" x="199.779" y="12">+</tspan></text><path d="M416.075 493.907 419.732 493.907 419.732 494.365 460.181 494.365 501.181 494.365 501.181 496.365 460.181 496.365 419.181 496.365 419.181 495.466 417.388 495.466 412.173 547.438 411.083 547.438 403.853 534.149 401.708 535.274 401.251 534.442 405.318 532.298 411.2 543.184Z" fill-rule="evenodd"/><text font-family="Cambria Math,Cambria Math_MSFontService,sans-serif" font-weight="400" font-size="24" transform="translate(418.854 529)">𝒃<tspan font-size="18" x="14.5" y="-7">𝟐</tspan><tspan x="31.3267" y="0">+</tspan><tspan x="54.66" y="0">𝒅</tspan><tspan font-size="18" x="70.16" y="7">𝟏</tspan><tspan font-size="18" x="70.16" y="-9">𝟐</tspan><tspan x="86.9867" y="0">−</tspan><tspan x="110.32" y="0">𝒃</tspan></text><path d="M361.5 324.25 382 324.25 382 316.5 397.5 332 382 347.5 382 339.75 361.5 339.75Z" stroke="#000000" stroke-miterlimit="8" fill-rule="evenodd"/><path d="M366.5 411.25 387 411.25 387 403.5 402.5 419 387 434.5 387 426.75 366.5 426.75Z" stroke="#000000" stroke-miterlimit="8" fill-rule="evenodd"/><text font-family="Cambria Math,Cambria Math_MSFontService,sans-serif" font-weight="400" font-size="24" transform="translate(141.657 124)">𝑥<tspan font-size="18" x="12.0467" y="5">1</tspan><tspan x="23.2067" y="0">,</tspan><tspan x="32.2067" y="0">𝑦</tspan><tspan font-size="18" x="44.4267" y="5">1</tspan><tspan x="55.5867" y="0">,</tspan><tspan x="64.5867" y="0">𝑤</tspan><tspan font-size="18" x="80.9" y="5">1</tspan><tspan x="92.06" y="0">,</tspan><tspan x="101.06" y="0">𝑤</tspan><tspan font-size="18" x="117.927" y="5">2</tspan><tspan x="129.087" y="0">,</tspan><tspan x="138.087" y="0">ℎ</tspan><tspan font-size="18" x="150.867" y="5">1</tspan><tspan x="162.027" y="0">,</tspan><tspan x="171.027" y="0">𝑑</tspan><tspan font-size="18" x="184.307" y="5">1</tspan><tspan font-family="Yu Gothic,Yu Gothic_MSFontService,sans-serif" x="195.467" y="0">が</tspan><tspan font-family="Yu Gothic,Yu Gothic_MSFontService,sans-serif" x="219.467" y="0">与えられたとき、</tspan><tspan x="0" y="47">𝒙</tspan><tspan font-size="18" x="13.8333" y="51">𝟐</tspan><tspan font-family="Yu Gothic,Yu Gothic_MSFontService,sans-serif" x="25.3267" y="47">を求めたい。</tspan></text><path d="M202.573 45.7364C204.854 46.3379 206.606 47.6368 207.829 49.6329 209.051 51.629 209.663 54.0372 209.663 56.8575 209.663 59.6856 209.053 62.0938 207.835 64.0821 206.616 66.0704 204.862 67.3653 202.573 67.9669L202.292 67.0645C204.096 66.4629 205.438 65.2754 206.317 63.502 207.196 61.7286 207.635 59.4747 207.635 56.7403 207.635 54.0997 207.198 51.9063 206.323 50.1602 205.448 48.4141 204.092 47.2403 202.257 46.6387ZM145.464 45.7364 145.78 46.6387C143.952 47.2403 142.599 48.4141 141.72 50.1602 140.841 51.9063 140.401 54.0997 140.401 56.7403 140.401 59.4747 140.841 61.7286 141.72 63.502 142.599 65.2754 143.94 66.4629 145.745 67.0645L145.464 67.9669C143.175 67.3653 141.421 66.0704 140.202 64.0821 138.983 62.0938 138.374 59.6856 138.374 56.8575 138.374 54.0372 138.985 51.629 140.208 49.6329 141.431 47.6368 143.183 46.3379 145.464 45.7364Z" fill-rule="evenodd"/><text font-family="Cambria Math,Cambria Math_MSFontService,sans-serif" font-weight="400" font-size="24" transform="translate(146.225 64)">𝑥<tspan font-size="18" x="12.0467" y="5">1</tspan><tspan x="23.2067" y="0">,</tspan><tspan x="32.2067" y="0">𝑦</tspan><tspan font-size="18" x="44.4267" y="5">1</tspan></text><path d="M304.369 45.7364C306.651 46.3379 308.402 47.6368 309.625 49.6329 310.848 51.629 311.459 54.0372 311.459 56.8575 311.459 59.6856 310.85 62.0938 309.631 64.0821 308.412 66.0704 306.658 67.3653 304.369 67.9669L304.088 67.0645C305.893 66.4629 307.234 65.2754 308.113 63.502 308.992 61.7286 309.432 59.4747 309.432 56.7403 309.432 54.0997 308.994 51.9063 308.119 50.1602 307.244 48.4141 305.889 47.2403 304.053 46.6387ZM246.153 45.7364 246.47 46.6387C244.642 47.2403 243.288 48.4141 242.409 50.1602 241.53 51.9063 241.091 54.0997 241.091 56.7403 241.091 59.4747 241.53 61.7286 242.409 63.502 243.288 65.2754 244.63 66.4629 246.435 67.0645L246.153 67.9669C243.864 67.3653 242.11 66.0704 240.892 64.0821 239.673 62.0938 239.064 59.6856 239.064 56.8575 239.064 54.0372 239.675 51.629 240.898 49.6329 242.12 47.6368 243.872 46.3379 246.153 45.7364Z" fill-rule="evenodd"/><text font-family="Cambria Math,Cambria Math_MSFontService,sans-serif" font-weight="400" font-size="24" transform="translate(246.914 64)">𝑥<tspan font-size="18" x="12.6" y="5">2</tspan><tspan x="23.76" y="0">,</tspan><tspan x="32.76" y="0">𝑦</tspan><tspan font-size="18" x="45.5333" y="5">2</tspan></text></g></svg>